<?xml version="1.0" encoding="UTF-8" standalone="no"?>
<!-- Created with Inkscape (http://www.inkscape.org/) -->

<svg
   xmlns:dc="http://purl.org/dc/elements/1.1/"
   xmlns:cc="http://creativecommons.org/ns#"
   xmlns:rdf="http://www.w3.org/1999/02/22-rdf-syntax-ns#"
   xmlns:svg="http://www.w3.org/2000/svg"
   xmlns="http://www.w3.org/2000/svg"
   xmlns:sodipodi="http://sodipodi.sourceforge.net/DTD/sodipodi-0.dtd"
   xmlns:inkscape="http://www.inkscape.org/namespaces/inkscape"
   width="1100"
   height="250"
   viewBox="0 0 291.04166 66.145835"
   version="1.1"
   id="svg106"
   inkscape:export-filename="C:\Users\kaue\Documents\ipea\acesso_site\static\img\logos\logo_pt_teste.png"
   inkscape:export-xdpi="200"
   inkscape:export-ydpi="200"
   inkscape:version="0.92.4 (5da689c313, 2019-01-14)"
   sodipodi:docname="logo.svg">
  <defs
     id="defs100">
    <clipPath
       clipPathUnits="userSpaceOnUse"
       id="clipPath32">
      <path
         d="M 0,595.276 H 841.89 V 0 H 0 Z"
         id="path30"
         inkscape:connector-curvature="0" />
    </clipPath>
    <clipPath
       clipPathUnits="userSpaceOnUse"
       id="clipPath32-3">
      <path
         d="M 0,595.276 H 841.89 V 0 H 0 Z"
         id="path30-8"
         inkscape:connector-curvature="0" />
    </clipPath>
  </defs>
  <sodipodi:namedview
     id="base"
     pagecolor="#ffffff"
     bordercolor="#666666"
     borderopacity="1.0"
     inkscape:pageopacity="0.0"
     inkscape:pageshadow="2"
     inkscape:zoom="0.98994949"
     inkscape:cx="441.65644"
     inkscape:cy="50.636881"
     inkscape:document-units="mm"
     inkscape:current-layer="layer1"
     showgrid="false"
     units="px"
     inkscape:window-width="2560"
     inkscape:window-height="1007"
     inkscape:window-x="-9"
     inkscape:window-y="-9"
     inkscape:window-maximized="1" />
  <metadata
     id="metadata103">
    <rdf:RDF>
      <cc:Work
         rdf:about="">
        <dc:format>image/svg+xml</dc:format>
        <dc:type
           rdf:resource="http://purl.org/dc/dcmitype/StillImage" />
        <dc:title></dc:title>
      </cc:Work>
    </rdf:RDF>
  </metadata>
  <g
     inkscape:label="Layer 1"
     inkscape:groupmode="layer"
     id="layer1"
     transform="translate(0,-230.85415)">
    <g
       transform="matrix(0.35277777,0,0,-0.35277777,-8.4432696,438.81691)"
       id="g26">
      <g
         id="g28"
         clip-path="url(#clipPath32)">
        <g
           id="g34"
           transform="translate(142.0504,562.6231)">
          <path
             d="m 0,0 v -6.159 l 0.88,-0.508 -14.459,-13.752 -3.153,1.82 -4.98,-2.875 v -5.75 l 4.98,-2.875 0.834,0.482 4.058,-16.82 -5.484,-3.166 v -8.969 l 1.37,-0.791 -12.164,-11.523 -3.741,2.159 -5.478,-3.162 v -1.076 l -19.939,5.882 v 2.785 l -3.985,2.3 -0.59,-0.34 -4.96,20.557 3.754,2.168 v 6.325 l -0.879,0.507 12.117,11.524 5.594,-3.23 7.769,4.485 v 8.97 l -7.769,4.485 -1.515,-0.875 -3.614,14.975 -0.026,-0.015 -0.721,-0.417 -0.021,-0.012 3.614,-14.974 -5.485,-3.167 v -8.97 l 1.405,-0.811 -12.116,-11.524 -3.831,2.211 -5.478,-3.162 v -1.192 l -16.167,4.768 v 6.247 l -7.448,4.301 -8.088,-4.669 v -8.602 l 1.442,-0.832 -3.999,-3.803 v -0.387 -0.787 l 4.766,4.534 5.56,-3.209 7.767,4.484 v 1.837 l 16.167,-4.769 v -4.246 l 5.478,-3.163 0.956,0.551 4.961,-20.556 -2.626,-1.517 v -4.599 l 0.377,-0.218 -15.047,-14.312 -3.626,2.094 -5.478,-3.162 v -0.957 l -19.255,5.68 v -0.155 -0.732 l 19.255,-5.679 v -4.482 l 5.478,-3.163 0.955,0.551 3.95,-16.368 -5.485,-3.166 v -8.97 l 1.493,-0.862 -3.363,-3.199 0.162,-0.094 0.605,-0.349 3.364,3.199 5.507,-3.18 7.769,4.485 v 1.777 l 16.781,-4.95 v -3.776 l 4.981,-2.875 0.743,0.43 4.166,-17.268 -2.467,-1.423 0.587,-0.34 10.653,-6.151 c 0.338,-0.194 0.724,-0.258 1.102,-0.221 0.059,0.005 0.118,0.022 0.177,0.032 v 4.937 l -7.768,4.486 -1.517,-0.876 -4.166,17.266 3.469,2.003 v 5.75 l -4.979,2.875 -4.981,-2.875 v -1.089 l -16.781,4.952 v 6.306 l -7.769,4.485 -1.515,-0.875 -3.95,16.368 3.754,2.168 v 6.325 l -1.083,0.625 15.047,14.311 2.838,-1.638 3.985,2.3 v 0.927 l 19.939,-5.882 v -4.362 l 5.478,-3.163 5.477,3.163 v 6.325 l -0.968,0.559 12.163,11.523 5.631,-3.251 7.768,4.486 v 1.901 l 16.658,-4.913 v -3.852 l 4.98,-2.875 0.834,0.482 4.118,-17.068 -5.485,-3.166 v -8.971 l 1.451,-0.837 -13.356,-12.703 -2.589,1.494 -3.983,-2.3 v -0.654 l -21.489,6.263 v 3.071 l -3.984,2.301 -3.983,-2.301 v -4.6 l 3.983,-2.3 3.984,2.3 v 0.642 L 0.84,-112.92 v -3.059 l 3.983,-2.3 3.984,2.3 v 4.599 l -0.627,0.362 13.355,12.704 5.551,-3.205 7.768,4.485 v 1.827 l 8.985,-2.65 v 0.696 0.19 l -8.985,2.651 v 6.257 l -7.768,4.484 -1.516,-0.875 -4.118,17.068 3.378,1.95 v 5.75 l -4.98,2.875 -4.98,-2.875 v -1.011 l -16.658,4.913 v 6.181 l -7.768,4.485 -1.516,-0.875 -4.058,16.819 3.378,1.95 v 5.75 l -1.06,0.613 14.458,13.751 3.832,-2.211 5.334,3.079 25.994,-15.007 3.486,-14.447 -3.754,-2.168 v -6.325 l 5.478,-3.163 1.822,1.053 v 0.843 9.702 l -1.822,1.053 -0.956,-0.552 -3.238,13.417 -0.142,0.582 L 0.216,0.309 Z"
             style="fill:#4b7087;fill-opacity:1;fill-rule:nonzero;stroke:none"
             id="path36"
             inkscape:connector-curvature="0" />
        </g>
        <g
           id="g38"
           transform="translate(185.8893,465.462)">
          <path
             d="m 0,0 v -0.696 -14.211 c 0,-0.656 -0.354,-1.268 -0.922,-1.596 l -70.882,-40.925 -3.331,-1.923 c -0.177,-0.101 -0.369,-0.154 -0.564,-0.189 -0.059,-0.01 -0.117,-0.026 -0.177,-0.032 -0.378,-0.037 -0.764,0.027 -1.102,0.221 l -10.653,6.151 -0.588,0.34 -0.787,0.454 -38.741,22.368 -0.754,0.435 -0.561,0.324 -0.605,0.349 -0.162,0.094 -0.559,0.322 -20.802,12.011 c -0.569,0.328 -0.922,0.94 -0.922,1.596 v 30.281 1.128 0.732 0.155 0.677 5.068 30.441 1.153 4.189 0.787 0.387 0.715 9.981 c 0,0.656 0.353,1.268 0.922,1.596 l 1.551,0.896 0.084,0.049 8.088,4.669 0.517,0.298 1.373,0.794 0.754,0.434 42.862,24.747 0.022,0.012 0.72,0.417 0.027,0.015 2.215,1.279 0.753,0.435 15.246,8.802 c 0.285,0.164 0.603,0.246 0.921,0.246 0.32,0 0.638,-0.082 0.922,-0.246 l 31.078,-17.943 0.218,-0.126 2.17,-1.253 7.977,-4.605 0.665,-0.384 1.892,-1.093 24.009,-13.86 0.093,-0.054 0.861,-0.497 0.155,-0.09 0.018,-0.011 0.997,-0.575 4.08,-2.356 c 0.56,-0.322 0.912,-0.925 0.921,-1.565 V 61.921 61.666 61.407 51.705 50.862 50.466 L 0,2.069 V 1.199 0.832 0.19 Z m 0.85,1.818 v 49.139 0.396 0.842 8.722 0.258 0.256 9.393 c -0.014,0.944 -0.53,1.823 -1.346,2.295 l -4.78,2.76 -0.998,0.576 -0.018,0.01 -0.155,0.09 -0.861,0.497 -0.093,0.053 -23.644,13.651 -1.839,1.061 -0.231,0.134 -7.793,4.499 -2.225,1.285 -0.651,0.375 -30.926,17.856 c -0.83,0.479 -1.861,0.479 -2.692,0 l -15.029,-8.676 -0.753,-0.436 -2.216,-1.279 -0.026,-0.015 -0.721,-0.416 -0.021,-0.012 -42.862,-24.747 -0.754,-0.435 -2.017,-1.164 -1.632,-0.942 -0.767,-0.444 -5.439,-3.139 -1.977,-1.142 c -0.83,-0.479 -1.346,-1.373 -1.346,-2.332 V 59.997 59.282 58.895 58.108 53.919 52.767 22.643 21.298 20.62 16.502 15.865 15.727 -14.907 c 0,-0.959 0.516,-1.852 1.346,-2.331 l 20.587,-11.886 0.557,-0.322 0.163,-0.094 0.606,-0.35 0.559,-0.324 0.754,-0.434 38.535,-22.248 0.787,-0.456 1.437,-0.829 10.229,-5.905 c 0.415,-0.24 0.881,-0.359 1.345,-0.359 0.121,0 0.239,0.026 0.358,0.045 0.274,0.042 0.545,0.114 0.801,0.236 0.062,0.029 0.128,0.043 0.188,0.078 l 2.146,1.238 0.887,0.513 0.998,0.576 70.183,40.52 c 0.83,0.48 1.346,1.373 1.346,2.332 v 13.96 0.696 0.19 0.642 0.367 z"
             style="fill:#4b7087;fill-opacity:1;fill-rule:nonzero;stroke:none"
             id="path40"
             inkscape:connector-curvature="0" />
        </g>
      </g>
    </g>
    <text
       xml:space="preserve"
       style="font-style:normal;font-weight:normal;font-size:10.58333302px;line-height:1.25;font-family:'Montserrat Medium';letter-spacing:0px;word-spacing:0px;fill:#000000;fill-opacity:1;stroke:none;stroke-width:0.26458332;-inkscape-font-specification:'Montserrat Medium, ';font-stretch:normal;font-variant:normal;"
       x="65.481033"
       y="265.19492"
       id="text134"><tspan
         sodipodi:role="line"
         id="tspan132"
         x="65.481033"
         y="274.8504"
         style="stroke-width:0.26458332;-inkscape-font-specification:'Montserrat Medium, ';font-family:'Montserrat Medium';font-weight:normal;font-style:normal;font-stretch:normal;font-variant:normal;" /></text>
    <flowRoot
       xml:space="preserve"
       id="flowRoot136"
       style="fill:black;fill-opacity:1;stroke:none;font-family:'Montserrat Medium';font-style:normal;font-weight:normal;font-size:40px;line-height:1.25;letter-spacing:0px;word-spacing:0px;-inkscape-font-specification:'Montserrat Medium, ';font-stretch:normal;font-variant:normal;"><flowRegion
         id="flowRegion138"
         style="-inkscape-font-specification:'Montserrat Medium, ';font-family:'Montserrat Medium';font-weight:normal;font-style:normal;font-stretch:normal;font-variant:normal;"><rect
           id="rect140"
           width="586.89862"
           height="224.25386"
           x="-811.15247"
           y="-225.78185"
           style="-inkscape-font-specification:'Montserrat Medium, ';font-family:'Montserrat Medium';font-weight:normal;font-style:normal;font-stretch:normal;font-variant:normal;" /></flowRegion><flowPara
         id="flowPara142"></flowPara></flowRoot>    <flowRoot
       xml:space="preserve"
       id="flowRoot164"
       style="font-style:normal;font-weight:normal;font-size:74.66666412px;line-height:1.25;font-family:sans-serif;letter-spacing:0px;word-spacing:0px;fill:#000000;fill-opacity:1;stroke:none"
       transform="matrix(0.26458333,0,0,0.26458333,-9.290336,232.15843)"><flowRegion
         id="flowRegion166"><rect
           id="rect168"
           width="842.85706"
           height="165.66991"
           x="271.55569"
           y="78.870949" /></flowRegion><flowPara
         id="flowPara170"
         style="font-size:69.33333588px">Acesso a Oportunidades</flowPara></flowRoot>    <flowRoot
       xml:space="preserve"
       id="flowRoot164-3"
       style="font-style:normal;font-weight:normal;font-size:74.66666412px;line-height:1.25;font-family:sans-serif;letter-spacing:0px;word-spacing:0px;fill:#000000;fill-opacity:1;stroke:none"
       transform="matrix(0.26458333,0,0,0.26458333,-13.805135,176.22124)"><flowRegion
         id="flowRegion166-5"><rect
           id="rect168-1"
           width="822.65399"
           height="170.72067"
           x="271.55569"
           y="78.870949" /></flowRegion><flowPara
         id="flowPara170-5"
         style="font-size:69.33333588px">Access to Opportunities</flowPara></flowRoot>  </g>
</svg>
